<?xml version="1.0" encoding="UTF-8" standalone="no"?>
<!DOCTYPE svg PUBLIC "-//W3C//DTD SVG 1.1//EN"
 "http://www.w3.org/Graphics/SVG/1.1/DTD/svg11.dtd">
<!-- Generated by graphviz version 2.26.3 (20100126.1600)
 -->
<!-- Title: _anonymous_0 Pages: 1 -->
<svg width="312pt" height="638pt"
 viewBox="0.00 0.00 312.00 638.00" xmlns="http://www.w3.org/2000/svg" xmlns:xlink="http://www.w3.org/1999/xlink">
<g id="graph1" class="graph" transform="scale(1 1) rotate(0) translate(4 634)">
<title>_anonymous_0</title>
<polygon fill="white" stroke="white" points="-4,5 -4,-634 309,-634 309,5 -4,5"/>
<!-- struct0 -->
<g id="node1" class="node"><title>struct0</title>
<polygon fill="none" stroke="white" points="178,-593 178,-629 232,-629 232,-593 178,-593"/>
<text text-anchor="middle" x="205" y="-607.4" font-family="Times Roman,serif" font-size="14.00">Text</text>
</g>
<!-- struct1 -->
<g id="node2" class="node"><title>struct1</title>
<polygon fill="none" stroke="white" points="144,-519 144,-555 198,-555 198,-519 144,-519"/>
<text text-anchor="middle" x="171" y="-533.4" font-family="Times Roman,serif" font-size="14.00">Phr</text>
</g>
<!-- struct0&#45;&#45;struct1 -->
<g id="edge2" class="edge"><title>struct0:n19:s&#45;&#45;struct1:n17:n</title>
<path fill="none" stroke="black" d="M205,-593C205,-570.338 171,-577.662 171,-555"/>
</g>
<!-- struct9 -->
<g id="node22" class="node"><title>struct9</title>
<polygon fill="none" stroke="white" points="90.5,-1 90.5,-37 237.5,-37 237.5,-1 90.5,-1"/>
<text text-anchor="middle" x="107.5" y="-15.4" font-family="Times Roman,serif" font-size="14.00">en</text>
<polyline fill="none" stroke="white" points="124.5,-1 124.5,-37 "/>
<text text-anchor="middle" x="148" y="-15.4" font-family="Times Roman,serif" font-size="14.00">liten</text>
<polyline fill="none" stroke="white" points="171.5,-1 171.5,-37 "/>
<text text-anchor="middle" x="194" y="-15.4" font-family="Times Roman,serif" font-size="14.00">katt</text>
<polyline fill="none" stroke="white" points="216.5,-1 216.5,-37 "/>
<text text-anchor="middle" x="227" y="-15.4" font-family="Times Roman,serif" font-size="14.00">.</text>
</g>
<!-- struct0&#45;&#45;struct9 -->
<g id="edge32" class="edge"><title>struct0:n19:s&#45;&#45;struct9:n99993:n</title>
<path fill="none" stroke="black" d="M205,-593C205,-533.165 240,-522.835 240,-463 240,-463 240,-463 240,-167 240,-108.934 227,-95.0659 227,-37"/>
</g>
<!-- struct2 -->
<g id="node4" class="node"><title>struct2</title>
<polygon fill="none" stroke="white" points="137,-445 137,-481 191,-481 191,-445 137,-445"/>
<text text-anchor="middle" x="164" y="-459.4" font-family="Times Roman,serif" font-size="14.00">Utt</text>
</g>
<!-- struct1&#45;&#45;struct2 -->
<g id="edge4" class="edge"><title>struct1:n17:s&#45;&#45;struct2:n15:n</title>
<path fill="none" stroke="black" d="M171,-519C171,-501.827 164,-498.173 164,-481"/>
</g>
<!-- struct3 -->
<g id="node6" class="node"><title>struct3</title>
<polygon fill="none" stroke="white" points="118,-371 118,-407 194,-407 194,-371 118,-371"/>
<text text-anchor="middle" x="156" y="-385.4" font-family="Times Roman,serif" font-size="14.00">NPTyped</text>
</g>
<!-- struct2&#45;&#45;struct3 -->
<g id="edge6" class="edge"><title>struct2:n15:s&#45;&#45;struct3:n14:n</title>
<path fill="none" stroke="black" d="M164,-445C164,-427.741 156,-424.259 156,-407"/>
</g>
<!-- struct4 -->
<g id="node8" class="node"><title>struct4</title>
<polygon fill="none" stroke="white" points="55.5,-297 55.5,-333 174.5,-333 174.5,-297 55.5,-297"/>
<text text-anchor="middle" x="96.5" y="-311.4" font-family="Times Roman,serif" font-size="14.00">DetTyped</text>
<polyline fill="none" stroke="white" points="137.5,-297 137.5,-333 "/>
<text text-anchor="middle" x="156" y="-311.4" font-family="Times Roman,serif" font-size="14.00">CN</text>
</g>
<!-- struct3&#45;&#45;struct4 -->
<g id="edge8" class="edge"><title>struct3:n14:s&#45;&#45;struct4:n7:n</title>
<path fill="none" stroke="black" d="M156,-371C156,-339.435 96,-364.565 96,-333"/>
</g>
<!-- struct3&#45;&#45;struct4 -->
<g id="edge10" class="edge"><title>struct3:n14:s&#45;&#45;struct4:n13:n</title>
<path fill="none" stroke="black" d="M156,-371C156,-354.111 156,-349.889 156,-333"/>
</g>
<!-- struct5 -->
<g id="node11" class="node"><title>struct5</title>
<polygon fill="none" stroke="white" points="0,-223 0,-259 212,-259 212,-223 0,-223"/>
<text text-anchor="middle" x="50" y="-237.4" font-family="Times Roman,serif" font-size="14.00">QuantTyped</text>
<polyline fill="none" stroke="white" points="100,-223 100,-259 "/>
<text text-anchor="middle" x="137.5" y="-237.4" font-family="Times Roman,serif" font-size="14.00">APTyped</text>
<polyline fill="none" stroke="white" points="175,-223 175,-259 "/>
<text text-anchor="middle" x="193.5" y="-237.4" font-family="Times Roman,serif" font-size="14.00">CN</text>
</g>
<!-- struct4&#45;&#45;struct5 -->
<g id="edge12" class="edge"><title>struct4:n7:s&#45;&#45;struct5:n5:n</title>
<path fill="none" stroke="black" d="M96,-297C96,-270.482 50,-285.518 50,-259"/>
</g>
<!-- struct4&#45;&#45;struct5 -->
<g id="edge14" class="edge"><title>struct4:n13:s&#45;&#45;struct5:n10:n</title>
<path fill="none" stroke="black" d="M156,-297C156,-278.312 138,-277.688 138,-259"/>
</g>
<!-- struct4&#45;&#45;struct5 -->
<g id="edge16" class="edge"><title>struct4:n13:s&#45;&#45;struct5:n12:n</title>
<path fill="none" stroke="black" d="M156,-297C156,-273.116 194,-282.884 194,-259"/>
</g>
<!-- struct6 -->
<g id="node15" class="node"><title>struct6</title>
<polygon fill="none" stroke="white" points="62,-149 62,-185 184,-185 184,-149 62,-149"/>
<text text-anchor="middle" x="92" y="-163.4" font-family="Times Roman,serif" font-size="14.00">Quant</text>
<polyline fill="none" stroke="white" points="122,-149 122,-185 "/>
<text text-anchor="middle" x="139.5" y="-163.4" font-family="Times Roman,serif" font-size="14.00">AP</text>
<polyline fill="none" stroke="white" points="157,-149 157,-185 "/>
<text text-anchor="middle" x="170.5" y="-163.4" font-family="Times Roman,serif" font-size="14.00">N</text>
</g>
<!-- struct5&#45;&#45;struct6 -->
<g id="edge22" class="edge"><title>struct5:n12:s&#45;&#45;struct6:n11:n</title>
<path fill="none" stroke="black" d="M194,-223C194,-203.258 171,-204.742 171,-185"/>
</g>
<!-- struct5&#45;&#45;struct6 -->
<g id="edge18" class="edge"><title>struct5:n5:s&#45;&#45;struct6:n4:n</title>
<path fill="none" stroke="black" d="M50,-223C50,-197.827 92,-210.173 92,-185"/>
</g>
<!-- struct5&#45;&#45;struct6 -->
<g id="edge20" class="edge"><title>struct5:n10:s&#45;&#45;struct6:n9:n</title>
<path fill="none" stroke="black" d="M138,-223C138,-206.088 140,-201.912 140,-185"/>
</g>
<!-- struct7 -->
<g id="node19" class="node"><title>struct7</title>
<polygon fill="none" stroke="white" points="117,-75 117,-111 171,-111 171,-75 117,-75"/>
<text text-anchor="middle" x="144" y="-89.4" font-family="Times Roman,serif" font-size="14.00">A</text>
</g>
<!-- struct6&#45;&#45;struct7 -->
<g id="edge24" class="edge"><title>struct6:n9:s&#45;&#45;struct7:n8:n</title>
<path fill="none" stroke="black" d="M140,-149C140,-132.018 144,-127.982 144,-111"/>
</g>
<!-- struct6&#45;&#45;struct9 -->
<g id="edge26" class="edge"><title>struct6:n4:s&#45;&#45;struct9:n99990:n</title>
<path fill="none" stroke="black" d="M92,-149C92,-98.7778 107,-87.2222 107,-37"/>
</g>
<!-- struct6&#45;&#45;struct9 -->
<g id="edge30" class="edge"><title>struct6:n11:s&#45;&#45;struct9:n99992:n</title>
<path fill="none" stroke="black" d="M171,-149C171,-132.076 176.446,-128.547 180,-112 187.121,-78.847 194,-70.9091 194,-37"/>
</g>
<!-- struct7&#45;&#45;struct9 -->
<g id="edge28" class="edge"><title>struct7:n8:s&#45;&#45;struct9:n99991:n</title>
<path fill="none" stroke="black" d="M144,-75C144,-58.0178 148,-53.9822 148,-37"/>
</g>
<!-- struct8 -->
<g id="node21" class="node"><title>struct8</title>
<polygon fill="none" stroke="white" points="250,-593 250,-629 304,-629 304,-593 250,-593"/>
<text text-anchor="middle" x="277" y="-607.4" font-family="Times Roman,serif" font-size="14.00"> </text>
</g>
</g>
</svg>
