<?xml version="1.0" encoding="UTF-8" standalone="no"?>
<!DOCTYPE svg PUBLIC "-//W3C//DTD SVG 1.1//EN"
 "http://www.w3.org/Graphics/SVG/1.1/DTD/svg11.dtd">
<!-- Generated by graphviz version 2.26.3 (20100126.1600)
 -->
<!-- Title: _anonymous_0 Pages: 1 -->
<svg width="290pt" height="934pt"
 viewBox="0.00 0.00 290.00 934.00" xmlns="http://www.w3.org/2000/svg" xmlns:xlink="http://www.w3.org/1999/xlink">
<g id="graph1" class="graph" transform="scale(1 1) rotate(0) translate(4 930)">
<title>_anonymous_0</title>
<polygon fill="white" stroke="white" points="-4,5 -4,-930 287,-930 287,5 -4,5"/>
<!-- struct0 -->
<g id="node1" class="node"><title>struct0</title>
<polygon fill="none" stroke="white" points="156,-889 156,-925 210,-925 210,-889 156,-889"/>
<text text-anchor="middle" x="183" y="-903.4" font-family="Times Roman,serif" font-size="14.00">Text</text>
</g>
<!-- struct1 -->
<g id="node2" class="node"><title>struct1</title>
<polygon fill="none" stroke="white" points="122,-815 122,-851 176,-851 176,-815 122,-815"/>
<text text-anchor="middle" x="149" y="-829.4" font-family="Times Roman,serif" font-size="14.00">Phr</text>
</g>
<!-- struct0&#45;&#45;struct1 -->
<g id="edge2" class="edge"><title>struct0:n25:s&#45;&#45;struct1:n23:n</title>
<path fill="none" stroke="black" d="M183,-889C183,-866.338 149,-873.662 149,-851"/>
</g>
<!-- struct13 -->
<g id="node31" class="node"><title>struct13</title>
<polygon fill="none" stroke="white" points="74.5,-1 74.5,-37 221.5,-37 221.5,-1 74.5,-1"/>
<text text-anchor="middle" x="91.5" y="-15.4" font-family="Times Roman,serif" font-size="14.00">en</text>
<polyline fill="none" stroke="white" points="108.5,-1 108.5,-37 "/>
<text text-anchor="middle" x="132" y="-15.4" font-family="Times Roman,serif" font-size="14.00">liten</text>
<polyline fill="none" stroke="white" points="155.5,-1 155.5,-37 "/>
<text text-anchor="middle" x="178" y="-15.4" font-family="Times Roman,serif" font-size="14.00">katt</text>
<polyline fill="none" stroke="white" points="200.5,-1 200.5,-37 "/>
<text text-anchor="middle" x="211" y="-15.4" font-family="Times Roman,serif" font-size="14.00">.</text>
</g>
<!-- struct0&#45;&#45;struct13 -->
<g id="edge42" class="edge"><title>struct0:n25:s&#45;&#45;struct13:n99993:n</title>
<path fill="none" stroke="black" d="M183,-889C183,-829.165 218,-818.835 218,-759 218,-759 218,-759 218,-167 218,-109.139 211,-94.8615 211,-37"/>
</g>
<!-- struct2 -->
<g id="node4" class="node"><title>struct2</title>
<polygon fill="none" stroke="white" points="115,-741 115,-777 169,-777 169,-741 115,-741"/>
<text text-anchor="middle" x="142" y="-755.4" font-family="Times Roman,serif" font-size="14.00">Utt</text>
</g>
<!-- struct1&#45;&#45;struct2 -->
<g id="edge4" class="edge"><title>struct1:n23:s&#45;&#45;struct2:n21:n</title>
<path fill="none" stroke="black" d="M149,-815C149,-797.827 142,-794.173 142,-777"/>
</g>
<!-- struct3 -->
<g id="node6" class="node"><title>struct3</title>
<polygon fill="none" stroke="white" points="96,-667 96,-703 172,-703 172,-667 96,-667"/>
<text text-anchor="middle" x="134" y="-681.4" font-family="Times Roman,serif" font-size="14.00">NPTyped</text>
</g>
<!-- struct2&#45;&#45;struct3 -->
<g id="edge6" class="edge"><title>struct2:n21:s&#45;&#45;struct3:n20:n</title>
<path fill="none" stroke="black" d="M142,-741C142,-723.741 134,-720.259 134,-703"/>
</g>
<!-- struct4 -->
<g id="node8" class="node"><title>struct4</title>
<polygon fill="none" stroke="white" points="33.5,-593 33.5,-629 152.5,-629 152.5,-593 33.5,-593"/>
<text text-anchor="middle" x="74.5" y="-607.4" font-family="Times Roman,serif" font-size="14.00">DetTyped</text>
<polyline fill="none" stroke="white" points="115.5,-593 115.5,-629 "/>
<text text-anchor="middle" x="134" y="-607.4" font-family="Times Roman,serif" font-size="14.00">CN</text>
</g>
<!-- struct3&#45;&#45;struct4 -->
<g id="edge8" class="edge"><title>struct3:n20:s&#45;&#45;struct4:n13:n</title>
<path fill="none" stroke="black" d="M134,-667C134,-635.435 74,-660.565 74,-629"/>
</g>
<!-- struct3&#45;&#45;struct4 -->
<g id="edge10" class="edge"><title>struct3:n20:s&#45;&#45;struct4:n19:n</title>
<path fill="none" stroke="black" d="M134,-667C134,-650.111 134,-645.889 134,-629"/>
</g>
<!-- struct5 -->
<g id="node11" class="node"><title>struct5</title>
<polygon fill="none" stroke="white" points="29.5,-519 29.5,-555 190.5,-555 190.5,-519 29.5,-519"/>
<text text-anchor="middle" x="54" y="-533.4" font-family="Times Roman,serif" font-size="14.00">Num</text>
<polyline fill="none" stroke="white" points="78.5,-519 78.5,-555 "/>
<text text-anchor="middle" x="116" y="-533.4" font-family="Times Roman,serif" font-size="14.00">APTyped</text>
<polyline fill="none" stroke="white" points="153.5,-519 153.5,-555 "/>
<text text-anchor="middle" x="172" y="-533.4" font-family="Times Roman,serif" font-size="14.00">CN</text>
</g>
<!-- struct4&#45;&#45;struct5 -->
<g id="edge12" class="edge"><title>struct4:n13:s&#45;&#45;struct5:n12:n</title>
<path fill="none" stroke="black" d="M74,-593C74,-573.915 54,-574.085 54,-555"/>
</g>
<!-- struct4&#45;&#45;struct5 -->
<g id="edge14" class="edge"><title>struct4:n19:s&#45;&#45;struct5:n16:n</title>
<path fill="none" stroke="black" d="M134,-593C134,-574.312 116,-573.688 116,-555"/>
</g>
<!-- struct4&#45;&#45;struct5 -->
<g id="edge16" class="edge"><title>struct4:n19:s&#45;&#45;struct5:n18:n</title>
<path fill="none" stroke="black" d="M134,-593C134,-569.116 172,-578.884 172,-555"/>
</g>
<!-- struct6 -->
<g id="node15" class="node"><title>struct6</title>
<polygon fill="none" stroke="white" points="57.5,-445 57.5,-481 168.5,-481 168.5,-445 57.5,-445"/>
<text text-anchor="middle" x="82" y="-459.4" font-family="Times Roman,serif" font-size="14.00">Card</text>
<polyline fill="none" stroke="white" points="106.5,-445 106.5,-481 "/>
<text text-anchor="middle" x="124" y="-459.4" font-family="Times Roman,serif" font-size="14.00">AP</text>
<polyline fill="none" stroke="white" points="141.5,-445 141.5,-481 "/>
<text text-anchor="middle" x="155" y="-459.4" font-family="Times Roman,serif" font-size="14.00">N</text>
</g>
<!-- struct5&#45;&#45;struct6 -->
<g id="edge22" class="edge"><title>struct5:n18:s&#45;&#45;struct6:n17:n</title>
<path fill="none" stroke="black" d="M172,-519C172,-500.498 155,-499.502 155,-481"/>
</g>
<!-- struct5&#45;&#45;struct6 -->
<g id="edge18" class="edge"><title>struct5:n12:s&#45;&#45;struct6:n11:n</title>
<path fill="none" stroke="black" d="M54,-519C54,-498.021 82,-501.979 82,-481"/>
</g>
<!-- struct5&#45;&#45;struct6 -->
<g id="edge20" class="edge"><title>struct5:n16:s&#45;&#45;struct6:n15:n</title>
<path fill="none" stroke="black" d="M116,-519C116,-501.741 124,-498.259 124,-481"/>
</g>
<!-- struct7 -->
<g id="node19" class="node"><title>struct7</title>
<polygon fill="none" stroke="white" points="40.5,-371 40.5,-407 141.5,-407 141.5,-371 40.5,-371"/>
<text text-anchor="middle" x="78" y="-385.4" font-family="Times Roman,serif" font-size="14.00">Numeral</text>
<polyline fill="none" stroke="white" points="115.5,-371 115.5,-407 "/>
<text text-anchor="middle" x="128.5" y="-385.4" font-family="Times Roman,serif" font-size="14.00">A</text>
</g>
<!-- struct6&#45;&#45;struct7 -->
<g id="edge24" class="edge"><title>struct6:n11:s&#45;&#45;struct7:n10:n</title>
<path fill="none" stroke="black" d="M82,-445C82,-428.018 78,-423.982 78,-407"/>
</g>
<!-- struct6&#45;&#45;struct7 -->
<g id="edge26" class="edge"><title>struct6:n15:s&#45;&#45;struct7:n14:n</title>
<path fill="none" stroke="black" d="M124,-445C124,-427.966 129,-424.034 129,-407"/>
</g>
<!-- struct6&#45;&#45;struct13 -->
<g id="edge40" class="edge"><title>struct6:n17:s&#45;&#45;struct13:n99992:n</title>
<path fill="none" stroke="black" d="M155,-445C155,-386.473 176,-373.527 176,-315 176,-315 176,-315 176,-167 176,-109.215 178,-94.7846 178,-37"/>
</g>
<!-- struct8 -->
<g id="node22" class="node"><title>struct8</title>
<polygon fill="none" stroke="white" points="0,-297 0,-333 106,-333 106,-297 0,-297"/>
<text text-anchor="middle" x="53" y="-311.4" font-family="Times Roman,serif" font-size="14.00">Sub1000000</text>
</g>
<!-- struct7&#45;&#45;struct8 -->
<g id="edge28" class="edge"><title>struct7:n10:s&#45;&#45;struct8:n9:n</title>
<path fill="none" stroke="black" d="M78,-371C78,-350.784 53,-353.216 53,-333"/>
</g>
<!-- struct7&#45;&#45;struct13 -->
<g id="edge38" class="edge"><title>struct7:n14:s&#45;&#45;struct13:n99991:n</title>
<path fill="none" stroke="black" d="M129,-371C129,-313.18 134,-298.82 134,-241 134,-241 134,-241 134,-167 134,-109.215 132,-94.7846 132,-37"/>
</g>
<!-- struct9 -->
<g id="node24" class="node"><title>struct9</title>
<polygon fill="none" stroke="white" points="20.5,-223 20.5,-259 99.5,-259 99.5,-223 20.5,-223"/>
<text text-anchor="middle" x="60" y="-237.4" font-family="Times Roman,serif" font-size="14.00">Sub1000</text>
</g>
<!-- struct8&#45;&#45;struct9 -->
<g id="edge30" class="edge"><title>struct8:n9:s&#45;&#45;struct9:n8:n</title>
<path fill="none" stroke="black" d="M53,-297C53,-279.827 60,-276.173 60,-259"/>
</g>
<!-- struct10 -->
<g id="node26" class="node"><title>struct10</title>
<polygon fill="none" stroke="white" points="31,-149 31,-185 101,-185 101,-149 31,-149"/>
<text text-anchor="middle" x="66" y="-163.4" font-family="Times Roman,serif" font-size="14.00">Sub100</text>
</g>
<!-- struct9&#45;&#45;struct10 -->
<g id="edge32" class="edge"><title>struct9:n8:s&#45;&#45;struct10:n7:n</title>
<path fill="none" stroke="black" d="M60,-223C60,-205.902 66,-202.098 66,-185"/>
</g>
<!-- struct11 -->
<g id="node28" class="node"><title>struct11</title>
<polygon fill="none" stroke="white" points="40.5,-75 40.5,-111 101.5,-111 101.5,-75 40.5,-75"/>
<text text-anchor="middle" x="71" y="-89.4" font-family="Times Roman,serif" font-size="14.00">Sub10</text>
</g>
<!-- struct10&#45;&#45;struct11 -->
<g id="edge34" class="edge"><title>struct10:n7:s&#45;&#45;struct11:n6:n</title>
<path fill="none" stroke="black" d="M66,-149C66,-131.966 71,-128.034 71,-111"/>
</g>
<!-- struct11&#45;&#45;struct13 -->
<g id="edge36" class="edge"><title>struct11:n6:s&#45;&#45;struct13:n99990:n</title>
<path fill="none" stroke="black" d="M71,-75C71,-55.9147 91,-56.0853 91,-37"/>
</g>
<!-- struct12 -->
<g id="node30" class="node"><title>struct12</title>
<polygon fill="none" stroke="white" points="228,-889 228,-925 282,-925 282,-889 228,-889"/>
<text text-anchor="middle" x="255" y="-903.4" font-family="Times Roman,serif" font-size="14.00"> </text>
</g>
</g>
</svg>
